<?xml version="1.0" encoding="utf-8"?>
<!-- Generator: Adobe Illustrator 22.1.0, SVG Export Plug-In . SVG Version: 6.00 Build 0)  -->
<svg version="1.1" id="Layer_1" xmlns="http://www.w3.org/2000/svg" xmlns:xlink="http://www.w3.org/1999/xlink" x="0px" y="0px"
	 width="124px" height="112px" viewBox="0 0 124 112" style="enable-background:new 0 0 124 112;" xml:space="preserve">
<style type="text/css">
	.st0{fill:none;}
	.st1{fill:#FFC86F;}
	.st2{fill:url(#SVGID_1_);}
	.st3{fill:url(#SVGID_2_);}
	.st4{fill:#FFFFFF;}
	.st5{fill:none;stroke:#566875;stroke-width:2.5;stroke-miterlimit:10;}
	.st6{fill:none;stroke:#566875;stroke-width:2.5;stroke-linecap:round;stroke-miterlimit:10;}
	.st7{fill:none;stroke:#566875;stroke-width:2.0683;stroke-linecap:round;stroke-miterlimit:10;}
	.st8{fill:none;stroke:#566875;stroke-width:2.1417;stroke-miterlimit:10;}
	.st9{fill:#F58025;}
	.st10{fill:#566875;}
</style>
<pattern  y="112" width="3.341" height="3.341" patternUnits="userSpaceOnUse" id="New_Pattern_Swatch_3" viewBox="0 -3.341 3.341 3.341" style="overflow:visible;">
	<g>
		<rect y="-3.341" class="st0" width="3.341" height="3.341"/>
		<path class="st1" d="M2.625-1.67c0,0.395,0.32,0.716,0.716,0.716v-1.432C2.945-2.386,2.625-2.066,2.625-1.67z"/>
		<path class="st1" d="M0.716-1.67c0-0.395-0.32-0.716-0.716-0.716v1.432C0.395-0.954,0.716-1.275,0.716-1.67z"/>
		<path class="st1" d="M1.67-0.716c-0.395,0-0.716,0.32-0.716,0.716h1.432C2.386-0.395,2.066-0.716,1.67-0.716z"/>
		<path class="st1" d="M1.67-2.625c0.395,0,0.716-0.32,0.716-0.716H0.954C0.954-2.945,1.275-2.625,1.67-2.625z"/>
	</g>
</pattern>
<g>
	<g>
		<pattern  id="SVGID_1_" xlink:href="#New_Pattern_Swatch_3" patternTransform="matrix(1 0 0 1 125.2331 0.3173)">
		</pattern>
		<path class="st2" d="M103.162,70.521H18.683c6.028,17.538,22.655,30.146,42.239,30.146
			C80.504,100.667,97.133,88.059,103.162,70.521z"/>
		<pattern  id="SVGID_2_" xlink:href="#New_Pattern_Swatch_3" patternTransform="matrix(1 0 0 1 125.2331 0.3173)">
		</pattern>
		<path class="st3" d="M18.682,41.479h17.223v-3.918c0-2.474,2.006-4.479,4.479-4.479h12.058c2.474,0,4.479,2.006,4.479,4.479v3.918
			h46.239c-6.029-17.537-22.658-30.146-42.24-30.146C41.337,11.333,24.71,23.942,18.682,41.479z"/>
	</g>
	<rect x="50.256" y="41.479" class="st4" width="57.965" height="28.811"/>
	<path class="st5" d="M113.06,41.933C106.87,18.938,85.871,2.012,60.921,2.012C35.227,2.012,13.728,19.959,8.272,44"/>
	<path class="st5" d="M8.395,68.53c5.65,23.775,27.021,41.458,52.526,41.458c25.077,0,46.163-17.099,52.232-40.275"/>
	<path class="st6" d="M75.646,13.83c-20.378-7.115-42.425,1.402-53.067,19.242"/>
	<path class="st6" d="M46.197,98.17c19.882,6.942,41.358-0.998,52.275-17.962"/>
	<path class="st7" d="M18.753,41.275"/>
	<path class="st8" d="M14.672,55.999"/>
	<path class="st5" d="M60.922,84.795"/>
	<path class="st9" d="M56.922,43.686H15.703c-6.743,0-12.781,6.065-12.781,13.547v1.948c0,7.482,7.379,13.547,12.781,13.547h41.219
		V43.686z"/>
	<path class="st9" d="M39.972,35.52h14.884c1.693,0,3.066,1.373,3.066,3.066v10.441c0,1.693-1.373,3.066-3.066,3.066H39.972
		c-1.693,0-3.066-1.373-3.066-3.066V38.586C36.906,36.893,38.278,35.52,39.972,35.52z"/>
	<path class="st4" d="M52.189,50.835c-0.789-0.742-1.604-1.077-4.163-1.46v-4.163c1.005,0.072,2.153,0.383,2.942,1.148l2.105-2.082
		c-1.291-1.244-2.751-1.842-4.713-1.961v-2.13h-2.44v2.153c-3.11,0.359-4.952,2.345-4.952,5.12c0,1.411,0.406,2.536,1.22,3.325
		c0.79,0.79,2.081,1.389,4.091,1.531v4.331c-1.459-0.048-2.822-0.407-3.828-1.436l-2.152,2.153c1.531,1.579,3.325,2.178,5.622,2.249
		V62.2h2.44v-2.68c3.015-0.358,5.168-2.153,5.168-5.072C53.529,52.941,53.099,51.697,52.189,50.835z M46.279,49.232
		c-0.693-0.096-1.22-0.335-1.603-0.67c-0.358-0.335-0.503-0.766-0.503-1.221c0-1.053,0.694-1.914,2.105-2.105V49.232z
		 M48.026,56.601v-4.092c0.741,0.096,1.244,0.168,1.698,0.599c0.359,0.335,0.527,0.837,0.527,1.411
		C50.252,55.692,49.462,56.41,48.026,56.601z"/>
	<path class="st5" d="M108.376,41.479H56.922v-3.918c0-2.474-2.006-4.479-4.479-4.479H40.385c-2.474,0-4.479,2.006-4.479,4.479
		v3.918h-20.28c-7.482,0-13.548,6.065-13.548,13.547v1.948c0,7.481,6.066,13.547,13.548,13.547h92.75
		c1.646,0,3.224-0.294,4.684-0.832c5.173-1.907,8.862-6.88,8.862-12.715v-1.948C121.922,47.545,115.857,41.479,108.376,41.479z"/>
	<path class="st5" d="M108.376,41.479H56.922v-3.918c0-2.474-2.006-4.479-4.479-4.479H40.385c-2.474,0-4.479,2.006-4.479,4.479
		v3.918h-20.28c-7.482,0-13.548,6.065-13.548,13.547v1.948c0,7.481,6.066,13.547,13.548,13.547h92.75
		c1.646,0,3.224-0.294,4.684-0.832c5.173-1.907,8.862-6.88,8.862-12.715v-1.948C121.922,47.545,115.857,41.479,108.376,41.479z"/>
	<line class="st5" x1="85.057" y1="41.479" x2="85.057" y2="70.724"/>
	<line class="st5" x1="56.922" y1="41.479" x2="56.922" y2="70.724"/>
	<rect x="45.172" y="41.479" class="st0" width="39.884" height="29.042"/>
	<g>
		<polygon class="st10" points="56.922,41.644 57.197,41.369 56.922,41.369 		"/>
		<polygon class="st10" points="67.197,41.369 63.662,41.369 56.922,48.109 56.922,51.644 		"/>
		<polygon class="st10" points="77.197,41.369 73.662,41.369 56.922,58.109 56.922,61.644 		"/>
		<polygon class="st10" points="85.057,53.509 85.057,49.974 64.51,70.521 68.045,70.521 		"/>
		<polygon class="st10" points="85.057,41.391 85.034,41.369 83.662,41.369 56.922,68.109 56.922,70.521 58.046,70.521 
			85.057,43.509 		"/>
		<polygon class="st10" points="85.057,69.974 84.51,70.521 85.057,70.521 		"/>
		<polygon class="st10" points="85.057,63.509 85.057,59.974 74.51,70.521 78.045,70.521 		"/>
	</g>
</g>
</svg>
