<?xml version="1.0" encoding="utf-8"?>
<!-- Generator: Adobe Illustrator 22.1.0, SVG Export Plug-In . SVG Version: 6.00 Build 0)  -->
<svg version="1.1" id="Layer_1" xmlns="http://www.w3.org/2000/svg" xmlns:xlink="http://www.w3.org/1999/xlink" x="0px" y="0px"
	 width="124px" height="112px" viewBox="0 0 124 112" style="enable-background:new 0 0 124 112;" xml:space="preserve">
<style type="text/css">
	.st0{fill:none;}
	.st1{fill:#FFC86F;}
	.st2{fill:url(#SVGID_1_);}
	.st3{fill:none;stroke:#566875;stroke-width:2.5;stroke-miterlimit:10;}
	.st4{fill:none;stroke:#566875;stroke-width:2.5;stroke-linecap:round;stroke-miterlimit:10;}
	.st5{fill:#F58025;}
	.st6{fill:#566875;}
</style>
<pattern  x="-23" y="-6" width="3.341" height="3.341" patternUnits="userSpaceOnUse" id="New_Pattern_Swatch_3" viewBox="0 -3.341 3.341 3.341" style="overflow:visible;">
	<g>
		<rect y="-3.341" class="st0" width="3.341" height="3.341"/>
		<path class="st1" d="M2.625-1.67c0,0.395,0.32,0.716,0.716,0.716v-1.432C2.945-2.386,2.625-2.066,2.625-1.67z"/>
		<path class="st1" d="M0.716-1.67c0-0.395-0.32-0.716-0.716-0.716v1.432C0.395-0.954,0.716-1.275,0.716-1.67z"/>
		<path class="st1" d="M1.67-0.716c-0.395,0-0.716,0.32-0.716,0.716h1.432C2.386-0.395,2.066-0.716,1.67-0.716z"/>
		<path class="st1" d="M1.67-2.625c0.395,0,0.716-0.32,0.716-0.716H0.954C0.954-2.945,1.275-2.625,1.67-2.625z"/>
	</g>
</pattern>
<g>
	<pattern  id="SVGID_1_" xlink:href="#New_Pattern_Swatch_3" patternTransform="matrix(1 0 0 1 24.0548 1.3955)">
	</pattern>
	<path class="st2" d="M65.384,2.219c-6.588,6.787-10.651,16.039-10.651,26.244c0,20.817,16.875,37.692,37.692,37.692
		c8.739,0,16.777-2.982,23.169-7.974c0.046-0.904,0.069-1.815,0.069-2.73C115.664,27.025,93.415,3.799,65.384,2.219z"/>
	<path class="st3" d="M10.028,41.33c-1.314,4.664-2.017,9.584-2.017,14.669"/>
	<path class="st3" d="M8.012,55.999c0,29.819,24.169,53.989,53.987,53.989c29.816,0,53.989-24.171,53.989-53.989
		c0-29.815-24.174-53.987-53.989-53.987c-12.27,0-23.583,4.093-32.649,10.987"/>
	<line class="st4" x1="52.5" y1="77.526" x2="122" y2="77.526"/>
	<line class="st4" x1="2" y1="77.526" x2="32.5" y2="77.526"/>
	<line class="st4" x1="20" y1="13" x2="28.096" y2="21.096"/>
	<line class="st4" x1="6.61" y1="16.973" x2="24.877" y2="29.565"/>
	<path class="st4" d="M124.428,83.302"/>
	<line class="st4" x1="5.95" y1="30.112" x2="18.5" y2="35.5"/>
	<path class="st5" d="M105.605,53.392c-2.998-2.816-6.63-2.977-9.386-1.704c-0.862-0.373-1.818-0.607-2.851-0.625
		c-1.219-0.052-2.52,0.278-3.76,0.788c-3.106-10.651-13.686-19.562-28.598-19.562c-4.291,0-8.341,0.843-12.017,2.283
		c0.127-0.05,0.235-0.127,0.363-0.175c-3.78-2.318-7.767-4.304-11.934-5.902c-0.662-0.25-1.309,0.431-1.024,1.078
		c1.53,3.472,2.712,6.972,3.567,10.454c0.106-0.094,0.239-0.162,0.346-0.254c-2.804,2.423-5.101,5.299-6.624,8.541
		c-1.392,2.964-5.796,1.147-5.796,3.852v11.95c0,2.732,4.368,0.812,5.804,3.863c1.734,3.677,4.412,6.926,7.761,9.521
		c1.242,0.961,1.094,1.521,2.366,9.176c0.131,0.782,0.805,1.353,1.598,1.353c9.367,0,8.152,1.024,9.101-4.676
		c4.597,0.903,9.297,0.831,13.763-0.158c0.982,5.879-0.308,4.833,9.13,4.833c0.793,0,1.467-0.572,1.592-1.353
		c1.405-8.412,1.244-8.877,2.429-9.871c7.351-6.158,9.953-14.171,8.87-21.7c1.152-0.808,2.222-1.219,3.184-1.343
		c-0.527,0.637-0.94,1.349-1.186,2.12c-1.151,4.537,2.716,7.4,5.844,5.499c3.311-2.111,2.706-6.04,0.103-8.393
		c1.901-0.796,4.378-0.724,6.846,1.028C105.503,54.304,105.973,53.737,105.605,53.392z M69.452,39.463
		c-5.447-1.506-11.44-1.506-16.868,0c-0.146,0.04-0.289,0.06-0.433,0.06c-0.706,0-1.357-0.468-1.553-1.186
		c-0.24-0.86,0.264-1.746,1.122-1.986c5.984-1.661,12.589-1.661,18.593,0C72.374,36.919,71.509,40.027,69.452,39.463z
		 M94.864,57.411c0-0.001,0-0.001,0-0.002C94.862,57.456,94.864,57.38,94.864,57.411z M98.637,57.169
		c0.212,1.338-1.692,2.733-2.635,2.331c-0.015-0.015-0.031-0.023-0.05-0.027c-0.758-0.302-1.016-1.308-1.081-2.124
		c0.048-1.121,0.588-2.22,1.463-3.09C97.707,54.983,98.54,56.277,98.637,57.169z"/>
	<g>
		<path class="st6" d="M37.342,25.932c0.093,0,0.189,0.017,0.285,0.053c4.167,1.598,8.154,3.584,11.934,5.902
			c-0.129,0.048-0.236,0.125-0.363,0.175c3.677-1.44,7.726-2.283,12.017-2.283c14.912,0,25.492,8.91,28.598,19.562
			c1.154-0.475,2.361-0.793,3.505-0.793c0.085,0,0.17,0.002,0.254,0.005c1.034,0.017,1.989,0.252,2.851,0.625
			c1.052-0.486,2.232-0.763,3.456-0.763c1.981,0,4.077,0.726,5.93,2.467c0.297,0.279,0.047,0.703-0.274,0.703
			c-0.076,0-0.156-0.024-0.234-0.079c-1.51-1.072-3.023-1.515-4.406-1.515c-0.877,0-1.702,0.178-2.439,0.487
			c2.603,2.353,3.207,6.282-0.103,8.393c-0.671,0.407-1.375,0.596-2.057,0.596c-2.498,0-4.691-2.531-3.787-6.095
			c0.245-0.77,0.659-1.482,1.186-2.12c-0.962,0.124-2.032,0.535-3.184,1.343c1.083,7.529-1.519,15.542-8.87,21.7
			c-1.185,0.993-1.024,1.459-2.429,9.871c-0.125,0.782-0.799,1.353-1.592,1.353c-2.476,0-4.213,0.072-5.447,0.072
			c-3.47,0-2.959-0.569-3.683-4.905c-2.368,0.525-4.802,0.791-7.252,0.791c-2.17,0-4.352-0.209-6.511-0.633
			c-0.698,4.193-0.225,4.747-3.655,4.747c-1.233,0-2.97-0.072-5.446-0.072c-0.793,0-1.467-0.572-1.598-1.353
			c-1.272-7.655-1.124-8.215-2.366-9.176c-3.349-2.595-6.027-5.844-7.761-9.521c-1.436-3.051-5.804-1.132-5.804-3.863v-11.95
			c0-2.704,4.404-0.887,5.796-3.852c1.523-3.242,3.819-6.118,6.624-8.541c-0.108,0.092-0.24,0.16-0.346,0.254
			c-0.855-3.482-2.037-6.982-3.567-10.454C36.359,26.511,36.796,25.932,37.342,25.932 M52.354,37.013
			c0.145,0,0.287-0.019,0.433-0.06c2.714-0.753,5.569-1.129,8.427-1.129c2.858,0,5.717,0.376,8.441,1.129
			c0.17,0.047,0.331,0.068,0.484,0.068c1.696,0,2.268-2.66,0.377-3.181c-3.002-0.831-6.154-1.246-9.304-1.246
			s-6.297,0.415-9.289,1.246c-0.859,0.241-1.363,1.126-1.122,1.986C50.997,36.546,51.647,37.013,52.354,37.013 M96.579,57.061
			c0.994,0,2.449-1.223,2.262-2.401c-0.097-0.892-0.93-2.186-2.303-2.909c-0.875,0.87-1.415,1.969-1.463,3.089
			c0.064,0.816,0.323,1.822,1.081,2.124c0.019,0.004,0.035,0.011,0.05,0.027C96.318,57.038,96.444,57.061,96.579,57.061
			 M95.067,54.915c0,0,0-0.004,0.001-0.016c0,0,0,0,0,0c0,0,0,0,0,0c0,0.001,0,0.001,0,0.002c0-0.006,0-0.008,0-0.008
			C95.068,54.894,95.067,54.915,95.067,54.915 M37.342,23.432C37.342,23.432,37.342,23.432,37.342,23.432
			c-1.119,0-2.154,0.564-2.771,1.509c-0.611,0.936-0.707,2.106-0.257,3.129c1.247,2.83,2.279,5.742,3.074,8.675
			c-2.462,2.411-4.395,5.094-5.759,7.997c-0.135,0.287-0.547,0.415-1.64,0.633c-1.315,0.262-4.393,0.876-4.393,4.281v11.95
			c0,3.428,3.181,4.036,4.378,4.264c1.207,0.231,1.518,0.355,1.663,0.664c1.874,3.973,4.81,7.58,8.492,10.432
			c0.052,0.04,0.085,0.068,0.105,0.085c0.183,0.419,0.439,2.022,0.76,4.034c0.154,0.964,0.337,2.112,0.566,3.49
			c0.334,1.997,2.043,3.444,4.064,3.444c1.426,0,2.625,0.025,3.589,0.044c0.719,0.015,1.332,0.027,1.857,0.027
			c4.013,0,5.15-1.307,5.735-4.386c1.47,0.181,2.953,0.272,4.432,0.272c1.734,0,3.467-0.125,5.178-0.373
			c0.662,3.538,1.982,4.487,5.756,4.487c0.525,0,1.139-0.012,1.859-0.027c0.964-0.02,2.163-0.045,3.588-0.045
			c2.033,0,3.74-1.455,4.061-3.459c0.261-1.564,0.471-2.866,0.644-3.944c0.361-2.249,0.625-3.89,0.81-4.307
			c0.02-0.018,0.054-0.05,0.112-0.098c5.043-4.225,8.3-9.574,9.491-15.36c1.042,0.722,2.273,1.116,3.558,1.116
			c1.162,0,2.322-0.332,3.355-0.959l0.023-0.014l0.023-0.015c2.009-1.281,3.218-3.207,3.405-5.423
			c0.073-0.865-0.016-1.745-0.25-2.603c0.335,0.157,0.67,0.355,1.003,0.592c0.498,0.354,1.079,0.541,1.682,0.541
			c1.18,0,2.266-0.744,2.704-1.851c0.438-1.109,0.155-2.356-0.721-3.176c-2.187-2.055-4.829-3.142-7.639-3.142
			c-1.178,0-2.367,0.201-3.49,0.587c-0.895-0.279-1.813-0.429-2.743-0.448c-0.109-0.004-0.218-0.006-0.328-0.006
			c-0.617,0-1.26,0.067-1.924,0.199c-4.507-11.444-16.31-18.968-30.18-18.968c-3.861,0-7.669,0.63-11.343,1.876
			c-3.659-2.168-7.472-4.018-11.35-5.504C38.133,23.505,37.741,23.432,37.342,23.432L37.342,23.432L37.342,23.432z"/>
	</g>
</g>
</svg>
