<?xml version="1.0" encoding="utf-8"?>
<!-- Generator: Adobe Illustrator 22.1.0, SVG Export Plug-In . SVG Version: 6.00 Build 0)  -->
<svg version="1.1" id="Layer_1" xmlns="http://www.w3.org/2000/svg" xmlns:xlink="http://www.w3.org/1999/xlink" x="0px" y="0px"
	 width="124px" height="112px" viewBox="0 0 124 112" style="enable-background:new 0 0 124 112;" xml:space="preserve">
<style type="text/css">
	.st0{fill:none;}
	.st1{fill:#FFC86F;}
	.st2{fill:url(#SVGID_1_);}
	.st3{fill:#F58025;}
	.st4{fill:none;stroke:#566875;stroke-width:2.5;stroke-miterlimit:10;}
	.st5{fill:none;stroke:#566875;stroke-width:2.5;stroke-linecap:round;stroke-miterlimit:10;}
</style>
<pattern  x="-23" y="-6" width="3.341" height="3.341" patternUnits="userSpaceOnUse" id="New_Pattern_Swatch_3" viewBox="0 -3.341 3.341 3.341" style="overflow:visible;">
	<g>
		<rect y="-3.341" class="st0" width="3.341" height="3.341"/>
		<path class="st1" d="M2.625-1.67c0,0.395,0.32,0.716,0.716,0.716v-1.432C2.945-2.386,2.625-2.066,2.625-1.67z"/>
		<path class="st1" d="M0.716-1.67c0-0.395-0.32-0.716-0.716-0.716v1.432C0.395-0.954,0.716-1.275,0.716-1.67z"/>
		<path class="st1" d="M1.67-0.716c-0.395,0-0.716,0.32-0.716,0.716h1.432C2.386-0.395,2.066-0.716,1.67-0.716z"/>
		<path class="st1" d="M1.67-2.625c0.395,0,0.716-0.32,0.716-0.716H0.954C0.954-2.945,1.275-2.625,1.67-2.625z"/>
	</g>
</pattern>
<g>
	<pattern  id="SVGID_1_" xlink:href="#New_Pattern_Swatch_3" patternTransform="matrix(1 0 0 1 124.8487 1.3955)">
	</pattern>
	<path class="st2" d="M107.24,27.5l-41,44l-30-17l-25,21l5,9h91C107.24,84.5,126.24,54.5,107.24,27.5z"/>
	<path class="st3" d="M61.491,64.138L35.398,88.795l73.245-0.381c5.12-8.254,8.085-17.986,8.085-28.414
		c0-1.386-0.069-2.756-0.172-4.116L86.312,70.797L61.491,64.138z"/>
	<path class="st4" d="M7.751,55.999c0,29.819,24.169,53.989,53.987,53.989c29.816,0,53.989-24.171,53.989-53.989
		c0-29.815-24.174-53.987-53.989-53.987C31.92,2.012,7.751,26.184,7.751,55.999"/>
	<line class="st5" x1="74.107" y1="63.791" x2="114.24" y2="20.5"/>
	<polyline class="st5" points="11.24,75.5 36.476,55.386 54.752,65.561 	"/>
	<path class="st4" d="M4.104,84.795"/>
	<line class="st5" x1="119.024" y1="84.795" x2="4.455" y2="84.795"/>
	<polyline class="st5" points="34.398,84.795 60.491,60.138 85.312,66.797 119.896,49.157 	"/>
</g>
</svg>
