<?xml version="1.0" encoding="utf-8"?>
<!-- Generator: Adobe Illustrator 22.1.0, SVG Export Plug-In . SVG Version: 6.00 Build 0)  -->
<svg version="1.1" id="Layer_1" xmlns="http://www.w3.org/2000/svg" xmlns:xlink="http://www.w3.org/1999/xlink" x="0px" y="0px"
	 width="124px" height="112px" viewBox="0 0 124 112" enable-background="new 0 0 124 112" xml:space="preserve">
<pattern  y="112" width="3.341" height="3.341" patternUnits="userSpaceOnUse" id="New_Pattern_Swatch_3" viewBox="0 -3.341 3.341 3.341" overflow="visible">
	<g>
		<rect y="-3.341" fill="none" width="3.341" height="3.341"/>
		<path fill="#FFC86F" d="M2.625-1.67c0,0.395,0.32,0.716,0.716,0.716v-1.432C2.945-2.386,2.625-2.066,2.625-1.67z"/>
		<path fill="#FFC86F" d="M0.716-1.67c0-0.395-0.32-0.716-0.716-0.716v1.432C0.395-0.954,0.716-1.275,0.716-1.67z"/>
		<path fill="#FFC86F" d="M1.67-0.716c-0.395,0-0.716,0.32-0.716,0.716h1.432C2.386-0.395,2.066-0.716,1.67-0.716z"/>
		<path fill="#FFC86F" d="M1.67-2.625c0.395,0,0.716-0.32,0.716-0.716H0.954C0.954-2.945,1.275-2.625,1.67-2.625z"/>
	</g>
</pattern>
<path fill="#F58025" d="M74.046,15.242H53.789c-2.213,0-4.008,1.794-4.008,4.008v25.232c0,2.213,1.794,4.008,4.008,4.008
	l3.435,0.317l4.982,7.059l4.405-7.059l4.38-0.187c2.213,0,5.122-2.146,5.122-4.36l0.305-25.181
	C76.418,16.866,75.982,15.242,74.046,15.242z M68.172,29.351c0.835,1.937,2.967,8.977,1.99,10.489
	c-1.292,1.997-1.501,1.297-2.495-0.842v0c-0.032-0.069-0.061-0.135-0.096-0.207c-0.898-1.914-2.16-5.353-2.748-6.286
	c-0.112,0.098-0.226,0.196-0.339,0.295c0-0.001,0-0.002-0.001-0.002c-1.693,1.462-3.549,2.917-4.991,3.864
	c0.001,0.001,0.001,0.002,0.001,0.002c-0.073,0.048-0.139,0.088-0.21,0.133c-0.104,0.067-0.211,0.136-0.31,0.197
	c-0.199,0.122-0.39,0.234-0.565,0.327c0.028,0.132,0.055,0.271,0.082,0.412c0.01,0.052,0.02,0.105,0.029,0.158
	c0.016,0.093,0.032,0.187,0.048,0.282c0.01,0.064,0.02,0.127,0.03,0.191c0.016,0.111,0.031,0.222,0.044,0.333
	c0.011,0.089,0.02,0.177,0.028,0.266c0.008,0.085,0.016,0.17,0.021,0.253c0.005,0.074,0.008,0.145,0.011,0.216
	c0.002,0.072,0.003,0.141,0.003,0.21c0,0.069,0.001,0.139-0.001,0.205c-0.005,0.117-0.012,0.23-0.026,0.336
	c-0.001,0.007-0.001,0.015-0.002,0.022c-0.016,0.119-0.042,0.226-0.072,0.325c-0.005,0.015-0.006,0.035-0.012,0.05
	c-0.037,0.11-0.084,0.207-0.143,0.285c-0.075,0.101-0.141,0.184-0.203,0.26c-0.017,0.021-0.034,0.042-0.05,0.061
	c-0.056,0.067-0.109,0.126-0.156,0.173c-0.01,0.011-0.021,0.019-0.031,0.029c-0.041,0.038-0.078,0.069-0.111,0.091
	c-0.007,0.005-0.014,0.011-0.02,0.014c-0.037,0.021-0.069,0.031-0.098,0.033c-0.003,0.001-0.008,0.004-0.01,0.004
	c-0.003,0-0.005-0.003-0.009-0.004c-0.03-0.002-0.059-0.013-0.084-0.036c0-0.001-0.001-0.002-0.003-0.003
	c-0.129-0.121-0.202-0.501-0.381-1.022c-0.343-1.001-1.596-2.5-1.676-2.586c-0.128-0.138-1.417-1.421-2.381-1.851
	c-1.032-0.46-1.52-0.428-0.297-1.188c0.655-0.406,2.337-0.007,3.523,0.355c0.109-0.165,0.239-0.346,0.377-0.533
	c0.039-0.053,0.08-0.108,0.122-0.162c0.112-0.148,0.232-0.3,0.359-0.458c0.044-0.055,0.085-0.107,0.131-0.163
	c0.135-0.165,0.277-0.333,0.424-0.507c0.001,0.001,0.001,0.001,0.001,0.001c1.112-1.302,2.566-2.813,3.983-4.165
	c-0.428-0.328-2.34-1.322-4.122-2.282c-0.045-0.024-0.089-0.048-0.134-0.072c-0.446-0.241-0.88-0.478-1.279-0.701
	c-0.029-0.016-0.056-0.031-0.084-0.047c-0.199-0.112-0.393-0.222-0.568-0.324c-2.197-1.282-2.986-1.529-0.813-2.673
	c1.526-0.805,7.815,1.725,10.002,2.787c0.006,0.003,0.012,0.006,0.018,0.009c0.079,0.039,0.152,0.075,0.219,0.109
	c0.011,0.005,0.023,0.012,0.034,0.017c0.071,0.037,0.139,0.072,0.195,0.103c0.018-0.014,0.036-0.028,0.053-0.043
	c3.535-2.885,5.955-4.038,6.699-3.225C72.833,23.687,71.427,26.04,68.172,29.351z"/>
<g>
	<pattern  id="SVGID_1_" xlink:href="#New_Pattern_Swatch_3" patternTransform="matrix(1 0 0 1 87.9109 68.1424)">
	</pattern>
	<path fill="url(#SVGID_1_)" d="M115.293,47.367L84.584,78.109V96.5H66.213l-12.789,12.803c2.793,0.446,5.656,0.685,8.575,0.685
		c29.816,0,53.989-24.171,53.989-53.989C115.988,53.06,115.745,50.179,115.293,47.367z"/>
	<path fill="none" stroke="#566875" stroke-width="2.5" stroke-miterlimit="10" d="M8.012,55.999
		c0,29.819,24.169,53.989,53.987,53.989c29.816,0,53.989-24.171,53.989-53.989c0-29.815-24.174-53.987-53.989-53.987
		C32.181,2.012,8.012,26.184,8.012,55.999"/>
	
		<line fill="none" stroke="#566875" stroke-width="2.5" stroke-linecap="round" stroke-miterlimit="10" x1="40.756" y1="33.615" x2="31.668" y2="33.615"/>
	
		<line fill="none" stroke="#566875" stroke-width="2.5" stroke-linecap="round" stroke-miterlimit="10" x1="92.168" y1="33.615" x2="83.656" y2="33.615"/>
	
		<line fill="none" stroke="#566875" stroke-width="2.5" stroke-linecap="round" stroke-miterlimit="10" x1="39.053" y1="41.487" x2="36.46" y2="42.38"/>
	
		<line fill="none" stroke="#566875" stroke-width="2.5" stroke-linecap="round" stroke-miterlimit="10" x1="87.375" y1="24.849" x2="85.299" y2="25.564"/>
	
		<line fill="none" stroke="#566875" stroke-width="2.5" stroke-linecap="round" stroke-miterlimit="10" x1="42.833" y1="48.525" x2="37.455" y2="52.727"/>
	
		<line fill="none" stroke="#566875" stroke-width="2.5" stroke-linecap="round" stroke-miterlimit="10" x1="86.38" y1="14.503" x2="81.361" y2="18.424"/>
	
		<line fill="none" stroke="#566875" stroke-width="2.5" stroke-linecap="round" stroke-miterlimit="10" x1="81.361" y1="48.806" x2="85.776" y2="52.255"/>
	
		<line fill="none" stroke="#566875" stroke-width="2.5" stroke-linecap="round" stroke-miterlimit="10" x1="38.06" y1="14.975" x2="42.832" y2="18.703"/>
	
		<line fill="none" stroke="#566875" stroke-width="2.5" stroke-linecap="round" stroke-miterlimit="10" x1="85.297" y1="41.665" x2="87.375" y2="42.38"/>
	
		<line fill="none" stroke="#566875" stroke-width="2.5" stroke-linecap="round" stroke-miterlimit="10" x1="36.46" y1="24.849" x2="39.054" y2="25.742"/>
	<pattern  id="SVGID_2_" xlink:href="#New_Pattern_Swatch_3" patternTransform="matrix(1 0 0 1 125.2331 0.3173)">
	</pattern>
	<polygon fill="url(#SVGID_2_)" points="25.645,96.5 37.305,96.5 37.305,61.433 8.012,61.433 10.705,72.333 15.934,84.667 	"/>
	<rect x="40.389" y="63.999" fill="#F58025" width="23.529" height="33.763"/>
	<polyline fill="none" stroke="#566875" stroke-width="2.4238" stroke-miterlimit="10" points="8.012,61.353 84.584,61.353 
		84.584,96.05 25.645,96.05 	"/>
	
		<line fill="none" stroke="#566875" stroke-width="2.1553" stroke-linecap="round" stroke-miterlimit="10" x1="90.333" y1="101.752" x2="51.918" y2="101.752"/>
	
		<line fill="none" stroke="#566875" stroke-width="2.1371" stroke-linecap="round" stroke-miterlimit="10" x1="90.333" y1="101.333" x2="90.333" y2="63.564"/>
	<path fill="none" stroke="#566875" stroke-width="2.0021" stroke-miterlimit="10" d="M84.584,100.914"/>
	<path fill="none" stroke="#566875" stroke-width="2.5" stroke-miterlimit="10" d="M69.898,12.56H53.937
		c-3.601,0-6.52,2.919-6.52,6.52v23.208c0,3.601,2.919,6.52,6.52,6.52h3.287l4.693,7.059l4.693-7.059h3.287
		c3.601,0,6.52-2.919,6.52-6.52V19.079C76.418,15.479,73.499,12.56,69.898,12.56z"/>
	<path fill="none" stroke="#566875" stroke-width="2.5" stroke-miterlimit="10" d="M8.012,55.999
		c0,29.819,24.169,53.989,53.987,53.989c29.816,0,53.989-24.171,53.989-53.989c0-29.815-24.174-53.987-53.989-53.987
		C32.181,2.012,8.012,26.184,8.012,55.999"/>
	
		<line fill="none" stroke="#566875" stroke-width="2.4238" stroke-miterlimit="10" x1="61.918" y1="61.433" x2="61.918" y2="96.131"/>
	
		<line fill="none" stroke="#566875" stroke-width="2.4238" stroke-miterlimit="10" x1="37.918" y1="61.433" x2="37.918" y2="96.131"/>
</g>
</svg>
